PathFileType	4	(X/Y/Z)	./resultDataOpenSim/trcMotMarkerGrf/sub09/qtm-01-04.trc
DataRate	CameraRate	NumFrames	NumMarkers	Units	OrigDataRate	OrigDataStartFrame	OrigNumFrames
250.000000	250.000000	10	24	m	250.000000	118	468
Frame#	Time	L.Toe.Tip			R.Toe.Tip			L.Ankle.Lat			R.Ankle.Lat			L.Ankle.Med			R.Ankle.Med			L.Heel			R.Heel			L.Knee.Lat			R.Knee.Lat			L.Knee.Med			R.Knee.Med			L.Thigh.Upper			R.Thigh.Upper			L.ASIS			R.ASIS			V.Sacral			L.Acromium			R.Acromium			C7			L.Elbow			R.Elbow			L.Wrist.Lat			R.Wrist.Lat
		X1	Y1	Z1	X2	Y2	Z2	X3	Y3	Z3	X4	Y4	Z4	X5	Y5	Z5	X6	Y6	Z6	X7	Y7	Z7	X8	Y8	Z8	X9	Y9	Z9	X10	Y10	Z10	X11	Y11	Z11	X12	Y12	Z12	X13	Y13	Z13	X14	Y14	Z14	X15	Y15	Z15	X16	Y16	Z16	X17	Y17	Z17	X18	Y18	Z18	X19	Y19	Z19	X20	Y20	Z20	X21	Y21	Z21	X22	Y22	Z22	X23	Y23	Z23	X24	Y24	Z24

118	0.468	-0.28222255	0.095017502	0.014091866	-0.63648063	0.041324287	0.12069125	-0.43121751	0.10845122	-0.024596988	-0.78473556	0.056936959	0.15064953	-0.41299329	0.12766272	0.070941142	-0.77107851	0.097122027	0.061652498	-0.49472243	0.059428354	0.022373945	-0.85093393	0.035504003	0.097830978	-0.42416179	0.52868016	-0.053318974	-0.68105596	0.50520068	0.21461401	-0.43210993	0.52298508	0.070811629	-0.69357962	0.49564709	0.088210258	-0.61786798	0.90048675	-0.10453121	-0.66729314	0.91386952	0.26610338	-0.55183197	0.98523553	-0.037963309	-0.5586396	0.99137316	0.20056215	-0.7205428	1.0458898	0.069826523	-0.54437205	1.4364639	-0.08739576	-0.55665606	1.4468164	0.24161633	-0.61337889	1.4955985	0.078316447	-0.72168146	1.1136127	-0.14031638	-0.69542752	1.105872	0.33458213	-0.60256913	0.87792824	-0.17861801	-0.5107854	0.89833385	0.33028944
119	0.472	-0.26217334	0.09710712	0.015029184	-0.63634406	0.041318951	0.12084015	-0.41171033	0.10690938	-0.023816933	-0.78456677	0.057051165	0.15031667	-0.39403648	0.12696099	0.071855453	-0.77070273	0.097093277	0.061334115	-0.47398978	0.056766823	0.023507788	-0.85086094	0.035678766	0.097436466	-0.41722769	0.52721643	-0.053680607	-0.67913058	0.50492609	0.21475282	-0.42525793	0.52147799	0.070424534	-0.6916595	0.49535918	0.088119221	-0.61076781	0.89925898	-0.10434985	-0.66177016	0.91329555	0.26610428	-0.54484651	0.98407203	-0.037589851	-0.55268064	0.99054452	0.20091709	-0.71403098	1.0446931	0.069545173	-0.53808182	1.4354367	-0.087362132	-0.55064878	1.4459727	0.24166602	-0.60733226	1.4946165	0.078325574	-0.71590243	1.1129673	-0.14020724	-0.68899018	1.1048233	0.3348275	-0.59801086	0.87678636	-0.17905752	-0.50352831	0.89799198	0.33001345
120	0.476	-0.2424146	0.099469206	0.016092588	-0.63619909	0.041317916	0.12099209	-0.39237185	0.10564659	-0.023023637	-0.78442957	0.057165652	0.14994929	-0.37525665	0.12654504	0.072760355	-0.77032178	0.097067288	0.060995791	-0.45329238	0.054341666	0.024631872	-0.85077903	0.035858984	0.096989172	-0.41040266	0.52560861	-0.054111021	-0.67718462	0.50462121	0.2148999	-0.41844212	0.51984562	0.070021862	-0.68951452	0.49508774	0.088145055	-0.60368457	0.89792014	-0.104156	-0.65629822	0.91267073	0.26608941	-0.53781317	0.9828298	-0.037211551	-0.54671957	0.98966661	0.20126753	-0.70747552	1.0433996	0.069233739	-0.5317697	1.4343299	-0.087339112	-0.5446508	1.4450534	0.24171384	-0.60127997	1.4935556	0.078321013	-0.71011328	1.1122346	-0.14021299	-0.68254937	1.1036907	0.33505058	-0.59344128	0.87558883	-0.17950608	-0.49632856	0.89756711	0.32974159
121	0.48	-0.22297679	0.10211419	0.017284637	-0.63609649	0.041262556	0.12108667	-0.37320482	0.1046794	-0.022175651	-0.78435767	0.057275361	0.14955356	-0.35669014	0.12642942	0.073658488	-0.76993111	0.097048805	0.060633574	-0.43274721	0.052187595	0.025729654	-0.85068816	0.036039469	0.096487249	-0.4036557	0.52388922	-0.054608694	-0.67464151	0.50430607	0.2149928	-0.41157508	0.51811322	0.069702283	-0.68715445	0.49484182	0.088284138	-0.59664752	0.89646678	-0.1039355	-0.65088936	0.91199175	0.26605353	-0.53078132	0.98151065	-0.036819165	-0.54075599	0.98874834	0.20162264	-0.70084111	1.0420071	0.068876154	-0.52549147	1.4331501	-0.087320413	-0.53865279	1.4440628	0.24176033	-0.59521849	1.4924216	0.078296688	-0.70429198	1.1114078	-0.14025272	-0.67610171	1.1024743	0.33525478	-0.58882876	0.87433776	-0.17996386	-0.48919034	0.89705989	0.32948686
122	0.484	-0.20388451	0.1050365	0.018576714	-0.63605592	0.041124073	0.12110722	-0.35423456	0.10402092	-0.021266253	-0.78433763	0.05740141	0.14912403	-0.33836527	0.12663648	0.074560851	-0.7695305	0.097037174	0.06025103	-0.41245499	0.050339193	0.026767648	-0.85059316	0.036222799	0.095947869	-0.39694193	0.52208294	-0.055142008	-0.67102736	0.50399467	0.21496464	-0.40461849	0.51628636	0.069530588	-0.68464651	0.49459958	0.08846218	-0.58968659	0.89489724	-0.10367664	-0.64551771	0.91126603	0.26600036	-0.5237864	0.98010897	-0.03640699	-0.53479837	0.98779392	0.20199377	-0.69409264	1.0405107	0.068457023	-0.51925853	1.4319124	-0.087298938	-0.53266406	1.4430073	0.2418104	-0.58914131	1.4912195	0.078260214	-0.69842839	1.1104873	-0.14028844	-0.66964604	1.1011741	0.3354442	-0.58419447	0.87301467	-0.18043853	-0.48206585	0.89647168	0.32927957
123	0.488	-0.18516704	0.10821704	0.019921852	-0.63604212	0.04093722	0.1210991	-0.33550097	0.10366913	-0.020335265	-0.7843159	0.057569725	0.14866651	-0.3203125	0.1271625	0.075476021	-0.76912979	0.097030853	0.059862918	-0.39245126	0.048794667	0.027748479	-0.85049493	0.036423968	0.095397881	-0.39023951	0.52019635	-0.055669031	-0.66694075	0.50364901	0.21482059	-0.39768073	0.51431322	0.069467979	-0.68203964	0.49433917	0.088620638	-0.58280741	0.89320834	-0.1033857	-0.64015386	0.91049749	0.26593764	-0.51682515	0.97861967	-0.035974356	-0.52886667	0.98679886	0.2023894	-0.68728765	1.0389447	0.068001507	-0.51304745	1.4306301	-0.087276286	-0.5266973	1.4418897	0.2418722	-0.58304242	1.4899518	0.078222315	-0.6925268	1.1094801	-0.14031762	-0.66318321	1.0997916	0.33562373	-0.57958031	0.87159876	-0.18093498	-0.47490112	0.89579929	0.32914276
124	0.492	-0.16685499	0.11162574	0.021274174	-0.63600609	0.040758616	0.12111593	-0.3170602	0.10360169	-0.01943884	-0.784256	0.057771024	0.14821606	-0.30257456	0.12794295	0.076372104	-0.76872924	0.097030449	0.059478911	-0.37275164	0.047530625	0.028683718	-0.85038543	0.036659667	0.094856195	-0.3835543	0.51822489	-0.05614847	-0.66398852	0.50321304	0.21470246	-0.39092488	0.51212465	0.06942112	-0.67932909	0.49405322	0.088753715	-0.57595479	0.89140719	-0.10307388	-0.63478237	0.90968024	0.26586823	-0.50987548	0.97704297	-0.035526699	-0.52296222	0.98575468	0.20280884	-0.68073857	1.0374623	0.067668156	-0.5068368	1.4293016	-0.087257555	-0.52075313	1.4407039	0.24195014	-0.57692133	1.4886202	0.078185627	-0.68659434	1.1083951	-0.14034727	-0.65671419	1.0983303	0.33579755	-0.57497311	0.87009318	-0.1814356	-0.46770488	0.89503391	0.32906478
125	0.496	-0.14897452	0.11522427	0.022601957	-0.63593237	0.040610562	0.12116882	-0.29899929	0.10377913	-0.01861581	-0.78416671	0.057967867	0.14781294	-0.2851819	0.12889357	0.0771765	-0.76831628	0.097035961	0.059100984	-0.35337766	0.046513643	0.029563251	-0.85025549	0.036931834	0.094326896	-0.37689431	0.51616978	-0.05654062	-0.66312611	0.5027011	0.21480071	-0.384341	0.50972008	0.069372529	-0.67648817	0.49374402	0.088877592	-0.56907315	0.88951009	-0.10273178	-0.62940228	0.90880704	0.26579063	-0.5029222	0.97538673	-0.035071527	-0.51705516	0.98465826	0.20324165	-0.67507451	1.0363796	0.067795445	-0.50061184	1.4279075	-0.08724037	-0.5148182	1.4394411	0.24204104	-0.57078764	1.4872301	0.078151687	-0.68063201	1.1072383	-0.14038476	-0.65023717	1.0967921	0.33596566	-0.57031008	0.86852131	-0.18191028	-0.46053645	0.89416837	0.32901842
126	0.5	-0.13155017	0.11897381	0.023874147	-0.63583604	0.040484495	0.12123523	-0.28139081	0.10416423	-0.017883608	-0.78406858	0.058143722	0.14746536	-0.26813023	0.12997956	0.077819841	-0.76788917	0.097045738	0.058733632	-0.33435115	0.045708073	0.030348253	-0.85010348	0.037227883	0.093804222	-0.37025051	0.51404697	-0.056825435	-0.66376571	0.50222944	0.21523748	-0.37770726	0.50718835	0.069412015	-0.6735033	0.49342138	0.088997737	-0.56214473	0.88753195	-0.10234856	-0.62402099	0.90787087	0.26570367	-0.49596657	0.97366631	-0.034610797	-0.51111547	0.9835132	0.20367309	-0.67078504	1.0359392	0.068606939	-0.49436184	1.4264266	-0.087218134	-0.50887864	1.4381025	0.24213955	-0.56465791	1.4857991	0.078125322	-0.67463095	1.1060071	-0.14044015	-0.64375096	1.0951805	0.33612519	-0.56554032	0.86689812	-0.18234485	-0.45343284	0.89320588	0.32899313
127	0.504	-0.11461124	0.12283842	0.025051123	-0.6357346	0.04036974	0.12129266	-0.26424174	0.10474402	-0.017251267	-0.78396433	0.058315789	0.14714865	-0.25142669	0.13119713	0.078276485	-0.76746949	0.097057032	0.058373621	-0.31570311	0.04509503	0.030992833	-0.84993462	0.037532782	0.09327883	-0.36359831	0.51188239	-0.05700459	-0.66456124	0.50189155	0.21596983	-0.37081431	0.50464721	0.069625519	-0.67036145	0.49310038	0.08911789	-0.55515829	0.88547814	-0.10194206	-0.61865969	0.90685936	0.26560205	-0.48902045	0.97189857	-0.034143602	-0.50513641	0.98232129	0.20408926	-0.66739317	1.035863	0.069781255	-0.48808041	1.4248585	-0.087187024	-0.50293847	1.4366992	0.24224146	-0.55854294	1.4843477	0.078105099	-0.66857829	1.1046947	-0.14052737	-0.63725838	1.0935055	0.33627597	-0.56063491	0.86522515	-0.18273443	-0.44637933	0.89216383	0.32899062
